<?xml version="1.0" standalone="no"?>
<!DOCTYPE svg PUBLIC "-//W3C//DTD SVG 20010904//EN"
 "http://www.w3.org/TR/2001/REC-SVG-20010904/DTD/svg10.dtd">
<svg version="1.0" xmlns="http://www.w3.org/2000/svg"
 width="500.000000pt" height="500.000000pt" viewBox="0 0 500.000000 500.000000"
 preserveAspectRatio="xMidYMid meet">

<g transform="translate(0.000000,500.000000) scale(0.100000,-0.100000)"
fill="#fff" stroke="none">
<path d="M1476 3414 c-14 -13 -16 -57 -16 -330 l0 -314 -105 0 c-63 0 -105 -4
-105 -10 0 -7 423 -10 1250 -10 827 0 1250 3 1250 10 0 6 -118 10 -335 10
l-335 0 0 170 0 170 250 0 250 0 11 28 c6 15 9 80 7 150 -2 96 -6 125 -18 132
-24 15 -813 13 -828 -2 -9 -9 -12 -96 -12 -330 l0 -318 -179 0 -178 0 20 58
c18 50 21 89 25 310 4 231 2 255 -14 273 -15 17 -31 19 -151 19 -129 0 -135
-1 -158 -25 -25 -24 -25 -25 -25 -232 0 -228 -10 -297 -56 -365 l-24 -38 -95
0 -95 0 0 308 c0 262 -2 311 -16 330 -14 21 -22 22 -159 22 -117 0 -146 -3
-159 -16z"/>
<path d="M1510 2491 c0 -65 3 -81 15 -81 10 0 15 10 15 31 0 22 5 32 20 36 11
3 20 9 20 13 0 4 -9 10 -20 13 -26 7 -26 35 0 39 35 5 27 23 -12 26 l-38 3 0
-80z"/>
<path d="M1720 2490 c0 -64 3 -80 15 -80 10 0 15 10 15 30 0 17 5 30 10 30 6
0 10 -13 10 -30 0 -21 5 -30 16 -30 12 0 15 9 13 38 -1 20 1 47 5 59 12 36 -9
63 -49 63 l-35 0 0 -80z m50 30 c0 -11 -4 -20 -10 -20 -5 0 -10 9 -10 20 0 11
5 20 10 20 6 0 10 -9 10 -20z"/>
<path d="M1950 2490 l0 -80 35 0 c24 0 35 5 35 15 0 8 -9 15 -20 15 -13 0 -20
7 -20 20 0 11 7 20 15 20 8 0 15 7 15 15 0 8 -7 15 -15 15 -8 0 -15 7 -15 15
0 8 9 15 20 15 11 0 20 7 20 15 0 10 -11 15 -35 15 l-35 0 0 -80z"/>
<path d="M2160 2490 l0 -80 41 0 c43 0 52 22 11 28 -29 4 -30 42 -2 42 11 0
20 5 20 11 0 6 -9 13 -20 16 -27 7 -26 31 2 35 41 6 32 28 -11 28 l-41 0 0
-80z"/>
<path d="M2370 2490 l0 -80 35 0 c24 0 35 5 35 15 0 8 -9 15 -20 15 -18 0 -20
7 -20 65 0 51 -3 65 -15 65 -12 0 -15 -16 -15 -80z"/>
<path d="M2587 2564 c-4 -4 -7 -40 -7 -81 0 -58 3 -73 15 -73 8 0 15 9 15 20
0 11 5 20 10 20 6 0 10 -9 10 -20 0 -11 7 -20 15 -20 13 0 15 13 13 78 l-3 77
-30 3 c-17 2 -34 0 -38 -4z m43 -54 c0 -16 -4 -30 -10 -30 -5 0 -10 14 -10 30
0 17 5 30 10 30 6 0 10 -13 10 -30z"/>
<path d="M2809 2543 c-5 -15 -9 -49 -7 -77 2 -39 7 -52 21 -54 15 -3 17 5 17
62 0 37 4 66 10 66 6 0 10 -28 10 -65 0 -51 3 -65 15 -65 12 0 15 14 15 64 0
83 -5 96 -41 96 -23 0 -32 -6 -40 -27z"/>
<path d="M3036 2555 c-12 -32 -6 -122 8 -135 26 -20 61 -8 64 23 3 28 -15 38
-24 12 -12 -31 -24 -13 -24 35 0 28 5 50 10 50 6 0 10 -4 10 -10 0 -5 7 -10
16 -10 10 0 14 7 12 23 -4 28 -62 38 -72 12z"/>
<path d="M3250 2490 c0 -64 3 -80 15 -80 12 0 15 16 15 80 0 64 -3 80 -15 80
-12 0 -15 -16 -15 -80z"/>
<path d="M3432 2558 c-18 -18 -16 -148 3 -148 11 0 15 16 17 68 4 85 22 84 26
-3 2 -49 7 -65 17 -65 12 0 15 15 15 68 0 72 -10 92 -45 92 -12 0 -26 -5 -33
-12z"/>
<path d="M1250 2240 c0 -6 42 -10 105 -10 l105 0 0 -289 c0 -256 2 -290 17
-302 12 -11 53 -14 160 -14 132 0 146 2 159 19 11 16 14 74 14 303 l0 283 118
0 119 0 17 -37 c28 -65 36 -139 36 -337 0 -150 3 -196 14 -212 13 -17 27 -19
161 -19 134 0 148 2 161 19 26 37 18 442 -11 559 l-7 27 161 0 161 0 0 -295 0
-295 26 -10 c34 -13 774 -13 808 0 l26 10 0 138 c0 94 -4 142 -12 150 -9 9
-80 12 -260 12 l-248 0 0 145 0 145 335 0 c217 0 335 4 335 10 0 7 -423 10
-1250 10 -827 0 -1250 -3 -1250 -10z"/>
</g>
</svg>
